Coordinates
version=1
nRows=5
nColumns=40
inDegrees=yes

Units are S.I. units (second, meters, Newtons, ...)
If the header above contains a line with 'inDegrees', this indicates whether rotational values are in degrees (yes) or radians (no).

endheader
time	pelvis_tilt	pelvis_list	pelvis_rotation	pelvis_tx	pelvis_ty	pelvis_tz	hip_flexion_r	hip_adduction_r	hip_rotation_r	knee_angle_r	knee_angle_r_beta	ankle_angle_r	subtalar_angle_r	mtp_angle_r	hip_flexion_l	hip_adduction_l	hip_rotation_l	knee_angle_l	knee_angle_l_beta	ankle_angle_l	subtalar_angle_l	mtp_angle_l	lumbar_extension	lumbar_bending	lumbar_rotation	arm_flex_r	arm_add_r	arm_rot_r	elbow_flex_r	pro_sup_r	wrist_flex_r	wrist_dev_r	arm_flex_l	arm_add_l	arm_rot_l	elbow_flex_l	pro_sup_l	wrist_flex_l	wrist_dev_l
      0.00500000	      2.03267385	      2.17212044	     -0.08390616	      0.26798882	      0.91587499	     -1.21377196	     -3.47425195	    -20.58953057	    -37.91986773	      5.85349322	      0.10216273	     -6.24242393	      8.66987139	      0.00000000	     -1.94343881	    -15.96070226	    -39.04196299	      6.29621959	      0.10988976	     -5.57590259	     17.85482006	      0.00000000	     -5.67367720	     -0.56995278	     -0.02839552	     43.80262732	    -16.19513684	     43.80262732	     75.32635295	     44.96955879	      0.00000000	      0.00000000	     43.80262732	    -16.19513684	     43.80262732	     75.32635295	     44.96955879	      0.00000000	      0.00000000
      0.01000000	      1.99986402	      2.19169238	     -0.17716061	      0.26796092	      0.91579018	     -1.21359677	     -3.27931180	    -20.71569373	    -37.99899696	      6.15341448	      0.10739734	     -6.05713293	      8.91030483	      0.00000000	     -1.97298528	    -15.91031284	    -39.05175985	      6.19810222	      0.10817729	     -5.71219037	     17.76356364	      0.00000000	     -5.64633030	     -0.57122631	      0.16187318	     43.99987935	    -15.91220355	     43.99987935	     75.21285441	     44.98462097	      0.00000000	      0.00000000	     43.99987935	    -15.91220355	     43.99987935	     75.21285441	     44.98462097	      0.00000000	      0.00000000
      0.01500000	      1.96740147	      2.24115391	     -0.21616684	      0.26792341	      0.91576540	     -1.21352553	     -3.21545001	    -20.76918394	    -37.90006568	      6.14757381	      0.10729540	     -6.12896541	      8.81005354	      0.00000000	     -1.98132487	    -15.81813843	    -39.02598701	      6.09186708	      0.10632314	     -5.80666202	     17.67119081	      0.00000000	     -5.62551774	     -0.63198256	      0.21025524	     44.02080485	    -15.88442670	     44.02080485	     75.20276278	     44.98591169	      0.00000000	      0.00000000	     44.02080485	    -15.88442670	     44.02080485	     75.20276278	     44.98591169	      0.00000000	      0.00000000
      0.02000000	      1.96195391	      2.23669463	     -0.19382370	      0.26782321	      0.91574529	     -1.21356660	     -3.16861239	    -20.79768151	    -37.94351486	      6.25380070	      0.10914941	     -6.06979997	      8.84622768	      0.00000000	     -1.92821145	    -15.85468032	    -39.04237701	      6.18306260	      0.10791480	     -5.74689672	     17.72069914	      0.00000000	     -5.64820521	     -0.62228105	      0.18466933	     44.03936093	    -15.86143485	     44.03936093	     75.19555627	     44.98655361	      0.00000000	      0.00000000	     44.03936093	    -15.86143485	     44.03936093	     75.19555627	     44.98655361	      0.00000000	      0.00000000
      0.02500000	      1.93281631	      2.23633808	     -0.26153143	      0.26776235	      0.91572385	     -1.21344415	     -3.05037734	    -20.82536263	    -37.87853380	      6.34546444	      0.11074925	     -6.12748534	      8.74176863	      0.00000000	     -1.97170045	    -15.80236236	    -39.01028265	      6.02203344	      0.10510431	     -5.84704634	     17.61959539	      0.00000000	     -5.63993719	     -0.62460602	      0.25658086	     44.05726110	    -15.83837802	     44.05726110	     75.18752431	     44.98752721	      0.00000000	      0.00000000	     44.05726110	    -15.83837802	     44.05726110	     75.18752431	     44.98752721	      0.00000000	      0.00000000
